<?xml version="1.0" encoding="UTF-8" standalone="no"?>
<!DOCTYPE svg PUBLIC "-//W3C//DTD SVG 1.1//EN"
 "http://www.w3.org/Graphics/SVG/1.1/DTD/svg11.dtd">
<!-- Generated by graphviz version 8.1.0 (20230707.0739)
 -->
<!-- Pages: 1 -->
<svg width="1932pt" height="620pt"
 viewBox="0.00 0.00 1931.58 620.00" xmlns="http://www.w3.org/2000/svg" xmlns:xlink="http://www.w3.org/1999/xlink">
<g id="graph0" class="graph" transform="scale(1 1) rotate(0) translate(4 616)">
<polygon fill="white" stroke="none" points="-4,4 -4,-616 1927.58,-616 1927.58,4 -4,4"/>
<!-- [root] aws_apigatewayv2_api.notification_api (expand) -->
<g id="node1" class="node">
<title>[root] aws_apigatewayv2_api.notification_api (expand)</title>
<polygon fill="none" stroke="black" points="709.81,-252 475.56,-252 475.56,-216 709.81,-216 709.81,-252"/>
<text text-anchor="middle" x="592.69" y="-228.57" font-family="Times New Roman,serif" font-size="14.00">aws_apigatewayv2_api.notification_api</text>
</g>
<!-- [root] provider[&quot;registry.terraform.io/hashicorp/aws&quot;] -->
<g id="node18" class="node">
<title>[root] provider[&quot;registry.terraform.io/hashicorp/aws&quot;]</title>
<polygon fill="none" stroke="black" points="1311.69,-108 1048.94,-90 1311.69,-72 1574.44,-90 1311.69,-108"/>
<text text-anchor="middle" x="1311.69" y="-84.58" font-family="Times New Roman,serif" font-size="14.00">provider[&quot;registry.terraform.io/hashicorp/aws&quot;]</text>
</g>
<!-- [root] aws_apigatewayv2_api.notification_api (expand)&#45;&gt;[root] provider[&quot;registry.terraform.io/hashicorp/aws&quot;] -->
<g id="edge1" class="edge">
<title>[root] aws_apigatewayv2_api.notification_api (expand)&#45;&gt;[root] provider[&quot;registry.terraform.io/hashicorp/aws&quot;]</title>
<path fill="none" stroke="black" d="M524.37,-215.54C506.84,-207.64 490.03,-196.28 479.69,-180 471.11,-166.5 468.74,-155.67 479.69,-144 491,-131.95 909.89,-110.11 1148.87,-98.58"/>
<polygon fill="black" stroke="black" points="1148.94,-102.04 1158.76,-98.06 1148.6,-95.05 1148.94,-102.04"/>
</g>
<!-- [root] aws_apigatewayv2_deployment.notification_api_deployment (expand) -->
<g id="node2" class="node">
<title>[root] aws_apigatewayv2_deployment.notification_api_deployment (expand)</title>
<polygon fill="none" stroke="black" points="1098.56,-468 742.81,-468 742.81,-432 1098.56,-432 1098.56,-468"/>
<text text-anchor="middle" x="920.69" y="-444.57" font-family="Times New Roman,serif" font-size="14.00">aws_apigatewayv2_deployment.notification_api_deployment</text>
</g>
<!-- [root] aws_apigatewayv2_route.this (expand) -->
<g id="node4" class="node">
<title>[root] aws_apigatewayv2_route.this (expand)</title>
<polygon fill="none" stroke="black" points="962.44,-396 782.94,-396 782.94,-360 962.44,-360 962.44,-396"/>
<text text-anchor="middle" x="872.69" y="-372.57" font-family="Times New Roman,serif" font-size="14.00">aws_apigatewayv2_route.this</text>
</g>
<!-- [root] aws_apigatewayv2_deployment.notification_api_deployment (expand)&#45;&gt;[root] aws_apigatewayv2_route.this (expand) -->
<g id="edge2" class="edge">
<title>[root] aws_apigatewayv2_deployment.notification_api_deployment (expand)&#45;&gt;[root] aws_apigatewayv2_route.this (expand)</title>
<path fill="none" stroke="black" d="M908.82,-431.7C903.3,-423.64 896.61,-413.89 890.5,-404.98"/>
<polygon fill="black" stroke="black" points="892.96,-403.37 884.42,-397.1 887.18,-407.33 892.96,-403.37"/>
</g>
<!-- [root] aws_apigatewayv2_integration.this (expand) -->
<g id="node3" class="node">
<title>[root] aws_apigatewayv2_integration.this (expand)</title>
<polygon fill="none" stroke="black" points="930.06,-324 721.31,-324 721.31,-288 930.06,-288 930.06,-324"/>
<text text-anchor="middle" x="825.69" y="-300.57" font-family="Times New Roman,serif" font-size="14.00">aws_apigatewayv2_integration.this</text>
</g>
<!-- [root] aws_apigatewayv2_integration.this (expand)&#45;&gt;[root] aws_apigatewayv2_api.notification_api (expand) -->
<g id="edge3" class="edge">
<title>[root] aws_apigatewayv2_integration.this (expand)&#45;&gt;[root] aws_apigatewayv2_api.notification_api (expand)</title>
<path fill="none" stroke="black" d="M767.49,-287.52C735.12,-277.79 694.66,-265.64 660.82,-255.47"/>
<polygon fill="black" stroke="black" points="662.13,-251.91 651.54,-252.38 660.11,-258.61 662.13,-251.91"/>
</g>
<!-- [root] aws_lambda_function.this (expand) -->
<g id="node10" class="node">
<title>[root] aws_lambda_function.this (expand)</title>
<polygon fill="none" stroke="black" points="906.81,-252 744.56,-252 744.56,-216 906.81,-216 906.81,-252"/>
<text text-anchor="middle" x="825.69" y="-228.57" font-family="Times New Roman,serif" font-size="14.00">aws_lambda_function.this</text>
</g>
<!-- [root] aws_apigatewayv2_integration.this (expand)&#45;&gt;[root] aws_lambda_function.this (expand) -->
<g id="edge4" class="edge">
<title>[root] aws_apigatewayv2_integration.this (expand)&#45;&gt;[root] aws_lambda_function.this (expand)</title>
<path fill="none" stroke="black" d="M825.69,-287.7C825.69,-280.24 825.69,-271.32 825.69,-262.97"/>
<polygon fill="black" stroke="black" points="829.19,-263.1 825.69,-253.1 822.19,-263.1 829.19,-263.1"/>
</g>
<!-- [root] aws_apigatewayv2_route.this (expand)&#45;&gt;[root] aws_apigatewayv2_integration.this (expand) -->
<g id="edge5" class="edge">
<title>[root] aws_apigatewayv2_route.this (expand)&#45;&gt;[root] aws_apigatewayv2_integration.this (expand)</title>
<path fill="none" stroke="black" d="M861.07,-359.7C855.66,-351.64 849.12,-341.89 843.13,-332.98"/>
<polygon fill="black" stroke="black" points="845.65,-331.46 837.17,-325.1 839.84,-335.36 845.65,-331.46"/>
</g>
<!-- [root] aws_apigatewayv2_stage.this (expand) -->
<g id="node5" class="node">
<title>[root] aws_apigatewayv2_stage.this (expand)</title>
<polygon fill="none" stroke="black" points="724.44,-468 544.94,-468 544.94,-432 724.44,-432 724.44,-468"/>
<text text-anchor="middle" x="634.69" y="-444.57" font-family="Times New Roman,serif" font-size="14.00">aws_apigatewayv2_stage.this</text>
</g>
<!-- [root] aws_cloudwatch_log_group.main_api_gw (expand) -->
<g id="node6" class="node">
<title>[root] aws_cloudwatch_log_group.main_api_gw (expand)</title>
<polygon fill="none" stroke="black" points="703.19,-324 450.19,-324 450.19,-288 703.19,-288 703.19,-324"/>
<text text-anchor="middle" x="576.69" y="-300.57" font-family="Times New Roman,serif" font-size="14.00">aws_cloudwatch_log_group.main_api_gw</text>
</g>
<!-- [root] aws_apigatewayv2_stage.this (expand)&#45;&gt;[root] aws_cloudwatch_log_group.main_api_gw (expand) -->
<g id="edge6" class="edge">
<title>[root] aws_apigatewayv2_stage.this (expand)&#45;&gt;[root] aws_cloudwatch_log_group.main_api_gw (expand)</title>
<path fill="none" stroke="black" d="M633.17,-431.6C631.06,-413.15 626.24,-383.49 615.69,-360 611.42,-350.51 605.26,-341.07 599.08,-332.84"/>
<polygon fill="black" stroke="black" points="601.41,-331.13 592.47,-325.44 595.91,-335.46 601.41,-331.13"/>
</g>
<!-- [root] aws_cloudwatch_log_group.main_api_gw (expand)&#45;&gt;[root] aws_apigatewayv2_api.notification_api (expand) -->
<g id="edge7" class="edge">
<title>[root] aws_cloudwatch_log_group.main_api_gw (expand)&#45;&gt;[root] aws_apigatewayv2_api.notification_api (expand)</title>
<path fill="none" stroke="black" d="M580.64,-287.7C582.37,-280.15 584.43,-271.12 586.36,-262.68"/>
<polygon fill="black" stroke="black" points="589.96,-263.63 588.78,-253.1 583.14,-262.07 589.96,-263.63"/>
</g>
<!-- [root] aws_iam_policy.lambda_iam_policy (expand) -->
<g id="node7" class="node">
<title>[root] aws_iam_policy.lambda_iam_policy (expand)</title>
<polygon fill="none" stroke="black" points="1493.69,-252 1273.69,-252 1273.69,-216 1493.69,-216 1493.69,-252"/>
<text text-anchor="middle" x="1383.69" y="-228.57" font-family="Times New Roman,serif" font-size="14.00">aws_iam_policy.lambda_iam_policy</text>
</g>
<!-- [root] data.aws_iam_policy_document.lambda_policy_doc (expand) -->
<g id="node16" class="node">
<title>[root] data.aws_iam_policy_document.lambda_policy_doc (expand)</title>
<polygon fill="none" stroke="black" points="1580.81,-180 1268.56,-180 1268.56,-144 1580.81,-144 1580.81,-180"/>
<text text-anchor="middle" x="1424.69" y="-156.57" font-family="Times New Roman,serif" font-size="14.00">data.aws_iam_policy_document.lambda_policy_doc</text>
</g>
<!-- [root] aws_iam_policy.lambda_iam_policy (expand)&#45;&gt;[root] data.aws_iam_policy_document.lambda_policy_doc (expand) -->
<g id="edge8" class="edge">
<title>[root] aws_iam_policy.lambda_iam_policy (expand)&#45;&gt;[root] data.aws_iam_policy_document.lambda_policy_doc (expand)</title>
<path fill="none" stroke="black" d="M1393.82,-215.7C1398.44,-207.81 1404.01,-198.3 1409.14,-189.55"/>
<polygon fill="black" stroke="black" points="1412.63,-191.5 1414.67,-181.1 1406.59,-187.96 1412.63,-191.5"/>
</g>
<!-- [root] aws_iam_role.notification_sender_ses_role (expand) -->
<g id="node8" class="node">
<title>[root] aws_iam_role.notification_sender_ses_role (expand)</title>
<polygon fill="none" stroke="black" points="1250.44,-180 992.94,-180 992.94,-144 1250.44,-144 1250.44,-180"/>
<text text-anchor="middle" x="1121.69" y="-156.57" font-family="Times New Roman,serif" font-size="14.00">aws_iam_role.notification_sender_ses_role</text>
</g>
<!-- [root] aws_iam_role.notification_sender_ses_role (expand)&#45;&gt;[root] provider[&quot;registry.terraform.io/hashicorp/aws&quot;] -->
<g id="edge9" class="edge">
<title>[root] aws_iam_role.notification_sender_ses_role (expand)&#45;&gt;[root] provider[&quot;registry.terraform.io/hashicorp/aws&quot;]</title>
<path fill="none" stroke="black" d="M1169.14,-143.52C1197.34,-133.13 1233.06,-119.97 1261.69,-109.42"/>
<polygon fill="black" stroke="black" points="1262.71,-112.4 1270.89,-105.66 1260.29,-105.84 1262.71,-112.4"/>
</g>
<!-- [root] aws_iam_role_policy_attachment.lambda_policy_attachment (expand) -->
<g id="node9" class="node">
<title>[root] aws_iam_role_policy_attachment.lambda_policy_attachment (expand)</title>
<polygon fill="none" stroke="black" points="1520.94,-324 1164.44,-324 1164.44,-288 1520.94,-288 1520.94,-324"/>
<text text-anchor="middle" x="1342.69" y="-300.57" font-family="Times New Roman,serif" font-size="14.00">aws_iam_role_policy_attachment.lambda_policy_attachment</text>
</g>
<!-- [root] aws_iam_role_policy_attachment.lambda_policy_attachment (expand)&#45;&gt;[root] aws_iam_policy.lambda_iam_policy (expand) -->
<g id="edge10" class="edge">
<title>[root] aws_iam_role_policy_attachment.lambda_policy_attachment (expand)&#45;&gt;[root] aws_iam_policy.lambda_iam_policy (expand)</title>
<path fill="none" stroke="black" d="M1352.82,-287.7C1357.44,-279.81 1363.01,-270.3 1368.14,-261.55"/>
<polygon fill="black" stroke="black" points="1371.63,-263.5 1373.67,-253.1 1365.59,-259.96 1371.63,-263.5"/>
</g>
<!-- [root] aws_iam_role_policy_attachment.lambda_policy_attachment (expand)&#45;&gt;[root] aws_iam_role.notification_sender_ses_role (expand) -->
<g id="edge11" class="edge">
<title>[root] aws_iam_role_policy_attachment.lambda_policy_attachment (expand)&#45;&gt;[root] aws_iam_role.notification_sender_ses_role (expand)</title>
<path fill="none" stroke="black" d="M1315.59,-287.59C1275.96,-262.13 1202.13,-214.69 1157.9,-186.27"/>
<polygon fill="black" stroke="black" points="1159.97,-182.79 1149.66,-180.33 1156.18,-188.68 1159.97,-182.79"/>
</g>
<!-- [root] aws_lambda_function.this (expand)&#45;&gt;[root] aws_iam_role.notification_sender_ses_role (expand) -->
<g id="edge12" class="edge">
<title>[root] aws_lambda_function.this (expand)&#45;&gt;[root] aws_iam_role.notification_sender_ses_role (expand)</title>
<path fill="none" stroke="black" d="M899.62,-215.52C941.46,-205.62 993.94,-193.21 1037.38,-182.94"/>
<polygon fill="black" stroke="black" points="1038,-186.15 1046.93,-180.44 1036.39,-179.34 1038,-186.15"/>
</g>
<!-- [root] aws_ses_email_identity.this (expand) -->
<g id="node14" class="node">
<title>[root] aws_ses_email_identity.this (expand)</title>
<polygon fill="none" stroke="black" points="658.94,-180 488.44,-180 488.44,-144 658.94,-144 658.94,-180"/>
<text text-anchor="middle" x="573.69" y="-156.57" font-family="Times New Roman,serif" font-size="14.00">aws_ses_email_identity.this</text>
</g>
<!-- [root] aws_lambda_function.this (expand)&#45;&gt;[root] aws_ses_email_identity.this (expand) -->
<g id="edge13" class="edge">
<title>[root] aws_lambda_function.this (expand)&#45;&gt;[root] aws_ses_email_identity.this (expand)</title>
<path fill="none" stroke="black" d="M762.75,-215.52C727.43,-205.71 683.22,-193.43 646.43,-183.21"/>
<polygon fill="black" stroke="black" points="647.83,-179.69 637.26,-180.38 645.96,-186.43 647.83,-179.69"/>
</g>
<!-- [root] data.archive_file.lambda (expand) -->
<g id="node15" class="node">
<title>[root] data.archive_file.lambda (expand)</title>
<polygon fill="none" stroke="black" points="432.19,-180 281.19,-180 281.19,-144 432.19,-144 432.19,-180"/>
<text text-anchor="middle" x="356.69" y="-156.57" font-family="Times New Roman,serif" font-size="14.00">data.archive_file.lambda</text>
</g>
<!-- [root] aws_lambda_function.this (expand)&#45;&gt;[root] data.archive_file.lambda (expand) -->
<g id="edge14" class="edge">
<title>[root] aws_lambda_function.this (expand)&#45;&gt;[root] data.archive_file.lambda (expand)</title>
<path fill="none" stroke="black" d="M744.21,-219.95C735.59,-218.6 726.96,-217.26 718.69,-216 624.58,-201.64 516.58,-185.92 443.22,-175.37"/>
<polygon fill="black" stroke="black" points="444.05,-171.81 433.65,-173.85 443.05,-178.73 444.05,-171.81"/>
</g>
<!-- [root] local.lambda_handler (expand) -->
<g id="node19" class="node">
<title>[root] local.lambda_handler (expand)</title>
<ellipse fill="none" stroke="black" cx="825.69" cy="-162" rx="148.87" ry="18"/>
<text text-anchor="middle" x="825.69" y="-156.57" font-family="Times New Roman,serif" font-size="14.00">[root] local.lambda_handler (expand)</text>
</g>
<!-- [root] aws_lambda_function.this (expand)&#45;&gt;[root] local.lambda_handler (expand) -->
<g id="edge15" class="edge">
<title>[root] aws_lambda_function.this (expand)&#45;&gt;[root] local.lambda_handler (expand)</title>
<path fill="none" stroke="black" d="M825.69,-215.7C825.69,-208.24 825.69,-199.32 825.69,-190.97"/>
<polygon fill="black" stroke="black" points="829.19,-191.1 825.69,-181.1 822.19,-191.1 829.19,-191.1"/>
</g>
<!-- [root] aws_lambda_permission.api_gw (expand) -->
<g id="node11" class="node">
<title>[root] aws_lambda_permission.api_gw (expand)</title>
<polygon fill="none" stroke="black" points="1146.81,-324 948.56,-324 948.56,-288 1146.81,-288 1146.81,-324"/>
<text text-anchor="middle" x="1047.69" y="-300.57" font-family="Times New Roman,serif" font-size="14.00">aws_lambda_permission.api_gw</text>
</g>
<!-- [root] aws_lambda_permission.api_gw (expand)&#45;&gt;[root] aws_apigatewayv2_api.notification_api (expand) -->
<g id="edge16" class="edge">
<title>[root] aws_lambda_permission.api_gw (expand)&#45;&gt;[root] aws_apigatewayv2_api.notification_api (expand)</title>
<path fill="none" stroke="black" d="M948.19,-289.47C944.98,-288.97 941.81,-288.48 938.69,-288 865.58,-276.7 783.77,-264.16 718.06,-254.12"/>
<polygon fill="black" stroke="black" points="718.66,-250.52 708.24,-252.47 717.6,-257.44 718.66,-250.52"/>
</g>
<!-- [root] aws_lambda_permission.api_gw (expand)&#45;&gt;[root] aws_lambda_function.this (expand) -->
<g id="edge17" class="edge">
<title>[root] aws_lambda_permission.api_gw (expand)&#45;&gt;[root] aws_lambda_function.this (expand)</title>
<path fill="none" stroke="black" d="M992.24,-287.52C961.53,-277.83 923.18,-265.74 891.02,-255.6"/>
<polygon fill="black" stroke="black" points="892.4,-252.05 881.81,-252.38 890.3,-258.73 892.4,-252.05"/>
</g>
<!-- [root] aws_lightsail_instance.this (expand) -->
<g id="node12" class="node">
<title>[root] aws_lightsail_instance.this (expand)</title>
<polygon fill="none" stroke="black" points="1576.81,-468 1414.56,-468 1414.56,-432 1576.81,-432 1576.81,-468"/>
<text text-anchor="middle" x="1495.69" y="-444.57" font-family="Times New Roman,serif" font-size="14.00">aws_lightsail_instance.this</text>
</g>
<!-- [root] aws_lightsail_instance.this (expand)&#45;&gt;[root] provider[&quot;registry.terraform.io/hashicorp/aws&quot;] -->
<g id="edge18" class="edge">
<title>[root] aws_lightsail_instance.this (expand)&#45;&gt;[root] provider[&quot;registry.terraform.io/hashicorp/aws&quot;]</title>
<path fill="none" stroke="black" d="M1536.95,-431.63C1581.66,-409.72 1646.69,-367.46 1646.69,-307 1646.69,-307 1646.69,-307 1646.69,-233 1646.69,-190.66 1645.34,-170.96 1612.69,-144 1586.61,-122.48 1511.91,-109.25 1443.46,-101.39"/>
<polygon fill="black" stroke="black" points="1443.86,-97.8 1433.53,-100.18 1443.09,-104.76 1443.86,-97.8"/>
</g>
<!-- [root] aws_ses_email_identity.perso (orphan) -->
<g id="node13" class="node">
<title>[root] aws_ses_email_identity.perso (orphan)</title>
<polygon fill="none" stroke="black" points="1534.94,-396 1352.44,-396 1352.44,-360 1534.94,-360 1534.94,-396"/>
<text text-anchor="middle" x="1443.69" y="-372.57" font-family="Times New Roman,serif" font-size="14.00">aws_ses_email_identity.perso</text>
</g>
<!-- [root] aws_ses_email_identity.perso (orphan)&#45;&gt;[root] provider[&quot;registry.terraform.io/hashicorp/aws&quot;] -->
<g id="edge19" class="edge">
<title>[root] aws_ses_email_identity.perso (orphan)&#45;&gt;[root] provider[&quot;registry.terraform.io/hashicorp/aws&quot;]</title>
<path fill="none" stroke="black" d="M1483.04,-359.5C1499.2,-350.74 1517.05,-338.81 1529.69,-324 1584.44,-259.87 1643.44,-208.97 1589.69,-144 1571.11,-121.55 1510.05,-108.52 1449.88,-101.01"/>
<polygon fill="black" stroke="black" points="1450.4,-97.43 1440.06,-99.71 1449.57,-104.38 1450.4,-97.43"/>
</g>
<!-- [root] aws_ses_email_identity.this (expand)&#45;&gt;[root] provider[&quot;registry.terraform.io/hashicorp/aws&quot;] -->
<g id="edge20" class="edge">
<title>[root] aws_ses_email_identity.this (expand)&#45;&gt;[root] provider[&quot;registry.terraform.io/hashicorp/aws&quot;]</title>
<path fill="none" stroke="black" d="M659.19,-145.17C662.05,-144.76 664.89,-144.37 667.69,-144 834.97,-122.04 1027.97,-107.59 1158.74,-99.41"/>
<polygon fill="black" stroke="black" points="1158.85,-102.84 1168.62,-98.73 1158.42,-95.86 1158.85,-102.84"/>
</g>
<!-- [root] provider[&quot;registry.terraform.io/hashicorp/archive&quot;] -->
<g id="node17" class="node">
<title>[root] provider[&quot;registry.terraform.io/hashicorp/archive&quot;]</title>
<polygon fill="none" stroke="black" points="279.69,-108 0,-90 279.69,-72 559.37,-90 279.69,-108"/>
<text text-anchor="middle" x="279.69" y="-84.58" font-family="Times New Roman,serif" font-size="14.00">provider[&quot;registry.terraform.io/hashicorp/archive&quot;]</text>
</g>
<!-- [root] data.archive_file.lambda (expand)&#45;&gt;[root] provider[&quot;registry.terraform.io/hashicorp/archive&quot;] -->
<g id="edge22" class="edge">
<title>[root] data.archive_file.lambda (expand)&#45;&gt;[root] provider[&quot;registry.terraform.io/hashicorp/archive&quot;]</title>
<path fill="none" stroke="black" d="M337.65,-143.7C327.95,-134.88 316.02,-124.03 305.5,-114.47"/>
<polygon fill="black" stroke="black" points="308.2,-112.28 298.45,-108.14 303.49,-117.46 308.2,-112.28"/>
</g>
<!-- [root] local.package_output_path (expand) -->
<g id="node20" class="node">
<title>[root] local.package_output_path (expand)</title>
<ellipse fill="none" stroke="black" cx="747.69" cy="-90" rx="170.32" ry="18"/>
<text text-anchor="middle" x="747.69" y="-84.58" font-family="Times New Roman,serif" font-size="14.00">[root] local.package_output_path (expand)</text>
</g>
<!-- [root] data.archive_file.lambda (expand)&#45;&gt;[root] local.package_output_path (expand) -->
<g id="edge21" class="edge">
<title>[root] data.archive_file.lambda (expand)&#45;&gt;[root] local.package_output_path (expand)</title>
<path fill="none" stroke="black" d="M432.3,-146.65C437.17,-145.75 441.99,-144.86 446.69,-144 514.75,-131.58 591.56,-118.06 650.55,-107.79"/>
<polygon fill="black" stroke="black" points="651.1,-111.07 660.35,-105.91 649.9,-104.18 651.1,-111.07"/>
</g>
<!-- [root] data.aws_iam_policy_document.lambda_policy_doc (expand)&#45;&gt;[root] provider[&quot;registry.terraform.io/hashicorp/aws&quot;] -->
<g id="edge23" class="edge">
<title>[root] data.aws_iam_policy_document.lambda_policy_doc (expand)&#45;&gt;[root] provider[&quot;registry.terraform.io/hashicorp/aws&quot;]</title>
<path fill="none" stroke="black" d="M1396.46,-143.52C1381.16,-134.04 1362.13,-122.25 1345.98,-112.25"/>
<polygon fill="black" stroke="black" points="1348.2,-108.88 1337.86,-106.59 1344.52,-114.83 1348.2,-108.88"/>
</g>
<!-- [root] local.function_name (expand) -->
<g id="node21" class="node">
<title>[root] local.function_name (expand)</title>
<ellipse fill="none" stroke="black" cx="747.69" cy="-18" rx="144.88" ry="18"/>
<text text-anchor="middle" x="747.69" y="-12.57" font-family="Times New Roman,serif" font-size="14.00">[root] local.function_name (expand)</text>
</g>
<!-- [root] local.package_output_path (expand)&#45;&gt;[root] local.function_name (expand) -->
<g id="edge24" class="edge">
<title>[root] local.package_output_path (expand)&#45;&gt;[root] local.function_name (expand)</title>
<path fill="none" stroke="black" d="M747.69,-71.7C747.69,-64.24 747.69,-55.32 747.69,-46.97"/>
<polygon fill="black" stroke="black" points="751.19,-47.1 747.69,-37.1 744.19,-47.1 751.19,-47.1"/>
</g>
<!-- [root] output.api_gateway_invoke_url (expand) -->
<g id="node22" class="node">
<title>[root] output.api_gateway_invoke_url (expand)</title>
<ellipse fill="none" stroke="black" cx="647.69" cy="-522" rx="186.29" ry="18"/>
<text text-anchor="middle" x="647.69" y="-516.58" font-family="Times New Roman,serif" font-size="14.00">[root] output.api_gateway_invoke_url (expand)</text>
</g>
<!-- [root] output.api_gateway_invoke_url (expand)&#45;&gt;[root] aws_apigatewayv2_stage.this (expand) -->
<g id="edge25" class="edge">
<title>[root] output.api_gateway_invoke_url (expand)&#45;&gt;[root] aws_apigatewayv2_stage.this (expand)</title>
<path fill="none" stroke="black" d="M644.47,-503.7C643.07,-496.15 641.39,-487.12 639.83,-478.68"/>
<polygon fill="black" stroke="black" points="643.13,-478.3 637.86,-469.1 636.25,-479.58 643.13,-478.3"/>
</g>
<!-- [root] output.instance_ip (expand) -->
<g id="node23" class="node">
<title>[root] output.instance_ip (expand)</title>
<ellipse fill="none" stroke="black" cx="1495.69" cy="-522" rx="138.39" ry="18"/>
<text text-anchor="middle" x="1495.69" y="-516.58" font-family="Times New Roman,serif" font-size="14.00">[root] output.instance_ip (expand)</text>
</g>
<!-- [root] output.instance_ip (expand)&#45;&gt;[root] aws_lightsail_instance.this (expand) -->
<g id="edge26" class="edge">
<title>[root] output.instance_ip (expand)&#45;&gt;[root] aws_lightsail_instance.this (expand)</title>
<path fill="none" stroke="black" d="M1495.69,-503.7C1495.69,-496.24 1495.69,-487.32 1495.69,-478.97"/>
<polygon fill="black" stroke="black" points="1499.19,-479.1 1495.69,-469.1 1492.19,-479.1 1499.19,-479.1"/>
</g>
<!-- [root] provider[&quot;registry.terraform.io/hashicorp/archive&quot;] (close) -->
<g id="node24" class="node">
<title>[root] provider[&quot;registry.terraform.io/hashicorp/archive&quot;] (close)</title>
<ellipse fill="none" stroke="black" cx="356.69" cy="-378" rx="249.66" ry="18"/>
<text text-anchor="middle" x="356.69" y="-372.57" font-family="Times New Roman,serif" font-size="14.00">[root] provider[&quot;registry.terraform.io/hashicorp/archive&quot;] (close)</text>
</g>
<!-- [root] provider[&quot;registry.terraform.io/hashicorp/archive&quot;] (close)&#45;&gt;[root] data.archive_file.lambda (expand) -->
<g id="edge27" class="edge">
<title>[root] provider[&quot;registry.terraform.io/hashicorp/archive&quot;] (close)&#45;&gt;[root] data.archive_file.lambda (expand)</title>
<path fill="none" stroke="black" d="M356.69,-359.85C356.69,-322.99 356.69,-235.92 356.69,-190.96"/>
<polygon fill="black" stroke="black" points="360.19,-191.23 356.69,-181.23 353.19,-191.23 360.19,-191.23"/>
</g>
<!-- [root] provider[&quot;registry.terraform.io/hashicorp/aws&quot;] (close) -->
<g id="node25" class="node">
<title>[root] provider[&quot;registry.terraform.io/hashicorp/aws&quot;] (close)</title>
<ellipse fill="none" stroke="black" cx="1101.69" cy="-522" rx="237.69" ry="18"/>
<text text-anchor="middle" x="1101.69" y="-516.58" font-family="Times New Roman,serif" font-size="14.00">[root] provider[&quot;registry.terraform.io/hashicorp/aws&quot;] (close)</text>
</g>
<!-- [root] provider[&quot;registry.terraform.io/hashicorp/aws&quot;] (close)&#45;&gt;[root] aws_apigatewayv2_deployment.notification_api_deployment (expand) -->
<g id="edge28" class="edge">
<title>[root] provider[&quot;registry.terraform.io/hashicorp/aws&quot;] (close)&#45;&gt;[root] aws_apigatewayv2_deployment.notification_api_deployment (expand)</title>
<path fill="none" stroke="black" d="M1057.41,-503.88C1032.83,-494.37 1002.04,-482.46 975.9,-472.35"/>
<polygon fill="black" stroke="black" points="977.35,-468.78 966.76,-468.43 974.83,-475.3 977.35,-468.78"/>
</g>
<!-- [root] provider[&quot;registry.terraform.io/hashicorp/aws&quot;] (close)&#45;&gt;[root] aws_apigatewayv2_stage.this (expand) -->
<g id="edge29" class="edge">
<title>[root] provider[&quot;registry.terraform.io/hashicorp/aws&quot;] (close)&#45;&gt;[root] aws_apigatewayv2_stage.this (expand)</title>
<path fill="none" stroke="black" d="M990.05,-505.72C919.81,-495.92 826.99,-482.62 735.62,-468.28"/>
<polygon fill="black" stroke="black" points="736.2,-464.67 725.78,-466.58 735.11,-471.59 736.2,-464.67"/>
</g>
<!-- [root] provider[&quot;registry.terraform.io/hashicorp/aws&quot;] (close)&#45;&gt;[root] aws_iam_role_policy_attachment.lambda_policy_attachment (expand) -->
<g id="edge30" class="edge">
<title>[root] provider[&quot;registry.terraform.io/hashicorp/aws&quot;] (close)&#45;&gt;[root] aws_iam_role_policy_attachment.lambda_policy_attachment (expand)</title>
<path fill="none" stroke="black" d="M1121,-503.85C1163.66,-465.97 1266.02,-375.08 1315.29,-331.33"/>
<polygon fill="black" stroke="black" points="1317.13,-334.49 1322.28,-325.23 1312.48,-329.26 1317.13,-334.49"/>
</g>
<!-- [root] provider[&quot;registry.terraform.io/hashicorp/aws&quot;] (close)&#45;&gt;[root] aws_lambda_permission.api_gw (expand) -->
<g id="edge31" class="edge">
<title>[root] provider[&quot;registry.terraform.io/hashicorp/aws&quot;] (close)&#45;&gt;[root] aws_lambda_permission.api_gw (expand)</title>
<path fill="none" stroke="black" d="M1105.77,-503.71C1109.37,-485.6 1113.25,-456.46 1107.69,-432 1099.47,-395.9 1079.47,-358.06 1064.81,-333.6"/>
<polygon fill="black" stroke="black" points="1067.31,-331.98 1059.1,-325.29 1061.34,-335.64 1067.31,-331.98"/>
</g>
<!-- [root] provider[&quot;registry.terraform.io/hashicorp/aws&quot;] (close)&#45;&gt;[root] aws_lightsail_instance.this (expand) -->
<g id="edge32" class="edge">
<title>[root] provider[&quot;registry.terraform.io/hashicorp/aws&quot;] (close)&#45;&gt;[root] aws_lightsail_instance.this (expand)</title>
<path fill="none" stroke="black" d="M1192.08,-504.94C1255.46,-493.68 1339.91,-478.68 1403.65,-467.35"/>
<polygon fill="black" stroke="black" points="1403.86,-470.69 1413.09,-465.5 1402.63,-463.8 1403.86,-470.69"/>
</g>
<!-- [root] provider[&quot;registry.terraform.io/hashicorp/aws&quot;] (close)&#45;&gt;[root] aws_ses_email_identity.perso (orphan) -->
<g id="edge33" class="edge">
<title>[root] provider[&quot;registry.terraform.io/hashicorp/aws&quot;] (close)&#45;&gt;[root] aws_ses_email_identity.perso (orphan)</title>
<path fill="none" stroke="black" d="M1143.2,-503.83C1168.25,-493.46 1200.81,-479.98 1229.69,-468 1285.08,-445.01 1348.52,-418.62 1391.85,-400.59"/>
<polygon fill="black" stroke="black" points="1392.98,-403.49 1400.87,-396.41 1390.29,-397.03 1392.98,-403.49"/>
</g>
<!-- [root] root -->
<g id="node26" class="node">
<title>[root] root</title>
<ellipse fill="none" stroke="black" cx="1101.69" cy="-594" rx="50.07" ry="18"/>
<text text-anchor="middle" x="1101.69" y="-588.58" font-family="Times New Roman,serif" font-size="14.00">[root] root</text>
</g>
<!-- [root] root&#45;&gt;[root] output.api_gateway_invoke_url (expand) -->
<g id="edge35" class="edge">
<title>[root] root&#45;&gt;[root] output.api_gateway_invoke_url (expand)</title>
<path fill="none" stroke="black" d="M1056.5,-586.03C986.56,-575.25 850.19,-554.22 754.23,-539.43"/>
<polygon fill="black" stroke="black" points="755.03,-535.86 744.62,-537.79 753.97,-542.77 755.03,-535.86"/>
</g>
<!-- [root] root&#45;&gt;[root] output.instance_ip (expand) -->
<g id="edge36" class="edge">
<title>[root] root&#45;&gt;[root] output.instance_ip (expand)</title>
<path fill="none" stroke="black" d="M1145.74,-585.17C1208.29,-574.06 1324.27,-553.45 1405.51,-539.02"/>
<polygon fill="black" stroke="black" points="1406,-542.31 1415.23,-537.12 1404.78,-535.42 1406,-542.31"/>
</g>
<!-- [root] root&#45;&gt;[root] provider[&quot;registry.terraform.io/hashicorp/archive&quot;] (close) -->
<g id="edge37" class="edge">
<title>[root] root&#45;&gt;[root] provider[&quot;registry.terraform.io/hashicorp/archive&quot;] (close)</title>
<path fill="none" stroke="black" d="M1051.74,-591.54C908.47,-586.98 503.12,-571.43 452.69,-540 403.67,-509.45 376.48,-443.88 364.41,-406.53"/>
<polygon fill="black" stroke="black" points="367.56,-405.87 361.27,-397.35 360.87,-407.94 367.56,-405.87"/>
</g>
<!-- [root] root&#45;&gt;[root] provider[&quot;registry.terraform.io/hashicorp/aws&quot;] (close) -->
<g id="edge38" class="edge">
<title>[root] root&#45;&gt;[root] provider[&quot;registry.terraform.io/hashicorp/aws&quot;] (close)</title>
<path fill="none" stroke="black" d="M1101.69,-575.7C1101.69,-568.24 1101.69,-559.32 1101.69,-550.97"/>
<polygon fill="black" stroke="black" points="1105.19,-551.1 1101.69,-541.1 1098.19,-551.1 1105.19,-551.1"/>
</g>
<!-- [root] local.source_path (expand) -->
<g id="node27" class="node">
<title>[root] local.source_path (expand)</title>
<ellipse fill="none" stroke="black" cx="1787.69" cy="-522" rx="135.89" ry="18"/>
<text text-anchor="middle" x="1787.69" y="-516.58" font-family="Times New Roman,serif" font-size="14.00">[root] local.source_path (expand)</text>
</g>
<!-- [root] root&#45;&gt;[root] local.source_path (expand) -->
<g id="edge34" class="edge">
<title>[root] root&#45;&gt;[root] local.source_path (expand)</title>
<path fill="none" stroke="black" d="M1149.85,-588.59C1244.39,-579.87 1460.89,-559.56 1642.69,-540 1654.38,-538.74 1666.6,-537.38 1678.77,-536"/>
<polygon fill="black" stroke="black" points="1678.9,-539.39 1688.44,-534.78 1678.11,-532.44 1678.9,-539.39"/>
</g>
</g>
</svg>
